<svg version="1.1" id="Layer_1" xmlns="http://www.w3.org/2000/svg" x="0" y="0" viewBox="0 0 24 24" xml:space="preserve"><linearGradient id="SVGID_1_" gradientUnits="userSpaceOnUse" x1="5.499" y1="1.124" x2="18.086" y2="22.926"><stop offset="0" stop-color="#14bbdb"/><stop offset="1" stop-color="#1086b4"/></linearGradient><path d="M3.8 3c0-.8.7-1.5 1.5-1.5h13.5c.8 0 1.5.7 1.5 1.5 0 .7-.5 1.4-1.3 1.5v.7c1.6.5 2.8 2 2.8 3.8v9.5c0 2.2-1.8 4-4 4H6.3c-2.2 0-4-1.8-4-4V9c0-1.8 1.2-3.3 2.8-3.8v-.7c-.8-.1-1.3-.8-1.3-1.5zM6 12c0-1.7 1.3-3 3-3h6c1.7 0 3 1.3 3 3v3c0 1.7-1.3 3-3 3H9c-1.7 0-3-1.3-3-3v-3zm7.1-.7c-.3.1-.6.2-.9.5-.1.1-.1.1-.2.1l-.1.1s-.1 0-.1-.1l-.2-.2c-.4-.3-.8-.5-1.3-.5-.3 0-.7.1-.9.4-.5.5-.6 1-.5 1.7.1.3.2.6.4.9.3.4.7.8 1.1 1.2.4.4.9.8 1.4 1.1h.1c.1-.1.2-.1.3-.2.2-.1.4-.3.6-.4.5-.4.9-.7 1.3-1.2.2-.3.5-.6.6-.9.1-.2.2-.5.2-.8 0-.4-.1-.7-.3-1-.3-.6-.8-.9-1.5-.7z" fill-rule="evenodd" clip-rule="evenodd" fill="url(#SVGID_1_)"/></svg>