<svg version="1.1" id="Layer_1" xmlns="http://www.w3.org/2000/svg" x="0" y="0" viewBox="0 0 24 24" xml:space="preserve"><linearGradient id="SVGID_1_" gradientUnits="userSpaceOnUse" x1="7.912" y1=".155" x2="7.912" y2="23.993"><stop offset="0" stop-color="#4eb6ae"/><stop offset="1" stop-color="#1accbd"/></linearGradient><path d="M15.4 5.6c-1.3-2.6-4-4.5-7.1-4.5C4 1.1.4 4.7.4 9.1c0 1.1.2 2.3.8 3.3l-.7 3.8c-.1.5.3.9.8.8l3.8-.7c.5.2 1 .5 1.6.6-1.4-5.9 3-11.3 8.7-11.3z" fill="url(#SVGID_1_)"/><linearGradient id="SVGID_2_" gradientUnits="userSpaceOnUse" x1="15.675" y1=".155" x2="15.675" y2="23.993"><stop offset="0" stop-color="#4eb6ae"/><stop offset="1" stop-color="#1accbd"/></linearGradient><path d="M22.8 18.3c.1-.2.2-.6.3-.8 1.8-5-1.8-10.3-7.1-10.5-4.5-.2-8.3 3.4-8.3 7.9 0 4.4 3.6 7.9 7.9 7.9 1.1 0 2.3-.2 3.3-.8 4.1.8 3.8.8 3.9.8.5 0 .8-.3.7-.8l-.7-3.7zm-7 .2h-.2c-1.8-1.7-3.4-3.1-3.4-4.5 0-1.1.9-2.1 2.1-2.1.6 0 1.1.2 1.5.6.5-.3.9-.6 1.5-.6 1.1 0 2.1.9 2.1 2.1-.2 1.4-1.8 2.9-3.6 4.5z" fill="url(#SVGID_2_)"/></svg>