<svg version="1.1" id="Layer_1" xmlns="http://www.w3.org/2000/svg" x="0" y="0" viewBox="0 0 24 24" xml:space="preserve"><style>.st0{fill:#b8b8b8}</style><path class="st0" d="M20 4.2v2.4c0 1.1-.9 2-2 2h-1.2c-1.1 0-2-.9-2-2V4.2H9.2v2.4c0 1.1-.9 2-2 2H5.9c-1.1 0-2-.9-2-2V4.2c-.9.1-1.7.9-1.7 1.8v14.2c0 1 .8 1.8 1.8 1.8h16c1 0 1.8-.8 1.8-1.8V6c0-.9-.8-1.7-1.8-1.8zm-1.3 15.9H5.3c-.4 0-.8-.3-.8-.8V12c0-.4.3-.8.8-.8h13.4c.4 0 .8.3.8.8v7.3c-.1.4-.4.8-.8.8z"/><path class="st0" d="M5.9 7.3h1.2c.4 0 .7-.3.7-.7v-4c.1-.3-.2-.6-.6-.6H5.9c-.3 0-.6.3-.6.7v4c0 .3.3.6.6.6zm10.9 0H18c.4 0 .7-.3.7-.7v-4c0-.3-.3-.6-.7-.6h-1.2c-.4 0-.7.3-.7.7v4c0 .3.3.6.7.6zm-3.3 5c-.6 0-1.1.2-1.5.6-.4-.4-1-.6-1.5-.6-1.2 0-2.1.9-2.1 2.1 0 1.4 1.6 2.8 3.5 4.5l.1.1s.1 0 .1-.1c1.9-1.7 3.5-3.2 3.5-4.5 0-1.2-.9-2.1-2.1-2.1z"/></svg>