<svg width="26" height="26" xmlns="http://www.w3.org/2000/svg" xmlns:xlink="http://www.w3.org/1999/xlink"><defs><filter x="-2.2%" y="-16%" width="104.4%" height="132%" filterUnits="objectBoundingBox" id="filter-1"><feOffset in="SourceAlpha" result="shadowOffsetOuter1"/><feGaussianBlur stdDeviation="2" in="shadowOffsetOuter1" result="shadowBlurOuter1"/><feColorMatrix values="0 0 0 0 0 0 0 0 0 0 0 0 0 0 0 0 0 0 0.15 0" in="shadowBlurOuter1" result="shadowMatrixOuter1"/><feMerge><feMergeNode in="shadowMatrixOuter1"/><feMergeNode in="SourceGraphic"/></feMerge></filter><path d="M2.66 17.58a.519.519 0 00.38-.16.519.519 0 00.16-.38v-6.007c.472-.124.86-.377 1.164-.76.304-.382.456-.827.456-1.333s-.152-.95-.456-1.333a2.143 2.143 0 00-1.164-.76V.84a.519.519 0 00-.16-.38.519.519 0 00-.38-.16.519.519 0 00-.38.16.519.519 0 00-.16.38v6.008a2.184 2.184 0 00-1.156.759C.654 7.989.5 8.434.5 8.94s.155.95.464 1.333c.31.383.695.636 1.156.76v6.007a.52.52 0 00.16.38.52.52 0 00.38.16zm6.48 0a.519.519 0 00.38-.16.519.519 0 00.16-.38v-2.767a2.14 2.14 0 001.164-.76c.304-.382.456-.827.456-1.333s-.152-.95-.456-1.333a2.143 2.143 0 00-1.164-.76V.84a.519.519 0 00-.16-.38.519.519 0 00-.38-.16.519.519 0 00-.38.16.519.519 0 00-.16.38v9.248a2.184 2.184 0 00-1.156.759c-.31.382-.464.827-.464 1.333s.155.95.464 1.333c.31.383.695.636 1.156.76v2.767a.52.52 0 00.16.38.52.52 0 00.38.16zm6.48 0a.519.519 0 00.38-.16.519.519 0 00.16-.38V7.793a2.14 2.14 0 001.164-.76c.304-.382.456-.827.456-1.333s-.152-.95-.456-1.333a2.143 2.143 0 00-1.164-.76V.84A.519.519 0 0016 .46a.519.519 0 00-.38-.16.519.519 0 00-.38.16.519.519 0 00-.16.38v2.768a2.184 2.184 0 00-1.156.759c-.31.382-.464.827-.464 1.333s.155.95.464 1.333c.31.383.695.636 1.156.76v9.247a.52.52 0 00.16.38.52.52 0 00.38.16zm0-10.8a1.03 1.03 0 01-.768-.32 1.052 1.052 0 01-.312-.76c0-.293.104-.546.312-.76a1.02 1.02 0 01.64-.313l.128-.007c.304 0 .56.107.768.32.208.214.312.467.312.76 0 .292-.104.546-.312.76a1.019 1.019 0 01-.64.313l-.128.007zM2.66 10.02a1.03 1.03 0 01-.768-.32 1.052 1.052 0 01-.312-.76c0-.292.104-.546.312-.76a1.02 1.02 0 01.64-.313l.128-.007c.304 0 .56.107.768.32.208.214.312.468.312.76 0 .293-.104.546-.312.76a1.019 1.019 0 01-.64.313l-.128.007zm6.48 3.24a1.03 1.03 0 01-.768-.32 1.052 1.052 0 01-.312-.76c0-.293.104-.546.312-.76a1.02 1.02 0 01.64-.313l.128-.007c.304 0 .56.107.768.32.208.214.312.467.312.76s-.104.546-.312.76a1.019 1.019 0 01-.64.313l-.128.007z" id="path-2"/></defs><g id="Donation-Page" stroke="none" stroke-width="1" fill="none" fill-rule="evenodd"><g id="New---Donasi-Page---Balita-&amp;-Anak-Sakit-(1)" transform="translate(-19 -83)" fill-rule="nonzero"><g id="Tab-Bar-/-Filter-/-Off" filter="url(#filter-1)" transform="translate(0 70)"><g id="Group-10"><g id="Group-9" transform="translate(23 17)"><g id="Icon-/-Tab-Bar-/-Filter"><g id="Kategori" transform="rotate(90 9.14 8.94)"><use fill="#4A4A4A" xlink:href="#path-2"/><use fill="#00AEEF" xlink:href="#path-2"/></g></g></g></g></g></g></g></svg>