<svg width="25" height="24" xmlns="http://www.w3.org/2000/svg"><defs><filter x="-2.2%" y="-16%" width="104.4%" height="132%" filterUnits="objectBoundingBox" id="filter-1"><feOffset in="SourceAlpha" result="shadowOffsetOuter1"/><feGaussianBlur stdDeviation="2" in="shadowOffsetOuter1" result="shadowBlurOuter1"/><feColorMatrix values="0 0 0 0 0 0 0 0 0 0 0 0 0 0 0 0 0 0 0.15 0" in="shadowBlurOuter1" result="shadowMatrixOuter1"/><feMerge><feMergeNode in="shadowMatrixOuter1"/><feMergeNode in="SourceGraphic"/></feMerge></filter></defs><g id="Donation-Page" stroke="none" stroke-width="1" fill="none" fill-rule="evenodd"><g id="New---Donasi-Page---Balita-&amp;-Anak-Sakit-(1)" transform="translate(-140 -83)" fill="#00AEEF" fill-rule="nonzero"><g id="Tab-Bar-/-Filter-/-Off" filter="url(#filter-1)" transform="translate(0 70)"><g id="Group-3" transform="translate(120)"><g id="Group-11" transform="translate(24 17)"><g id="Icon-/-Tab-Bar-/-Sort"><path d="M3.28 15.58a.32.32 0 00.27-.135l2.835-2.835a.403.403 0 00.135-.287.403.403 0 00-.135-.287l-.236-.236a.32.32 0 00-.27-.135.42.42 0 00-.304.135l-1.721 1.755V.865a.39.39 0 00-.118-.287.39.39 0 00-.287-.118H3.11a.39.39 0 00-.287.118.39.39 0 00-.118.287v12.69L.985 11.8a.42.42 0 00-.304-.135.32.32 0 00-.27.135l-.236.236a.403.403 0 00-.135.287c0 .101.045.197.135.287l2.835 2.835a.32.32 0 00.27.135zM16.375 3.7a.39.39 0 00.287-.118.39.39 0 00.118-.287v-.27a.39.39 0 00-.118-.287.39.39 0 00-.287-.118h-7.83a.39.39 0 00-.287.118.39.39 0 00-.118.287v.27c0 .113.04.208.118.287a.39.39 0 00.287.118h7.83zm-2.16 3.24a.39.39 0 00.287-.118.39.39 0 00.118-.287v-.27a.39.39 0 00-.118-.287.39.39 0 00-.287-.118h-5.67a.39.39 0 00-.287.118.39.39 0 00-.118.287v.27c0 .113.04.208.118.287a.39.39 0 00.287.118h5.67zm-2.16 3.24a.39.39 0 00.287-.118.39.39 0 00.118-.287v-.27a.39.39 0 00-.118-.287.39.39 0 00-.287-.118h-3.51a.39.39 0 00-.287.118.39.39 0 00-.118.287v.27c0 .113.04.208.118.287a.39.39 0 00.287.118h3.51zm-2.16 3.24a.39.39 0 00.287-.118.39.39 0 00.118-.287v-.27a.39.39 0 00-.118-.287.39.39 0 00-.287-.118h-1.35a.39.39 0 00-.287.118.39.39 0 00-.118.287v.27c0 .113.04.208.118.287a.39.39 0 00.287.118h1.35z" id="Urutkan"/></g></g></g></g></g></g></svg>