<svg version="1.1" id="Capa_1" xmlns="http://www.w3.org/2000/svg" x="0" y="0" viewBox="0 0 480.015 480.015" xml:space="preserve"><path d="M296.011 400.007l106.664-128 13.336-16-48-56-104 128zm80 72l96-144-24-56-104 128zm-216-72l32 72 32-72z" fill="#ed903b"/><path d="M160.011 400.007h64l-32 72h184l-32-72 104-128h-45.336l-106.664 128-32-72 104-128h-104l-67.504 72h-36.496l-120 128-32 72h184zm-120-328c0-17.672 14.328-32 32-32-17.672 0-32-14.328-32-32 0 17.672-14.328 32-32 32 17.672 0 32 14.328 32 32zm120 80c0 17.672-14.328 32-32 32 17.672 0 32 14.328 32 32 0-17.672 14.328-32 32-32-17.672 0-32-14.328-32-32zm248-144c0 35.344-28.656 64-64 64 35.344 0 64 28.656 64 64 0-35.344 28.656-64 64-64-35.344 0-64-28.656-64-64z" fill="#f7cc40"/><path d="M34.083 394.671c-.28.312-.496.688-.728 1.04-.192.296-.416.576-.568.896-.024.056-.072.096-.096.152l-32 72a7.997 7.997 0 007.32 11.248h368a7.983 7.983 0 006.648-3.568l.008.008.04-.064c0-.008.008-.008.016-.016 0-.008 0-.008.008-.016l95.936-143.904a7.96 7.96 0 00.696-7.584l-24-56-.032.016c-.04-.096-.048-.208-.096-.304a7.997 7.997 0 00-7.224-4.568h-28.248l2.392-2.872a7.99 7.99 0 00-.08-10.328l-48-56-.008.008a7.96 7.96 0 00-6.056-2.808h-104c-2.208 0-4.32.912-5.832 2.528l-65.128 69.472h-33.04c-2.208 0-4.32.912-5.832 2.528l-120 128c-.04.04-.056.096-.096.136zm-13.76 69.336l24.88-56h109.616l24.88 56H20.323zm263.376-72H124.323l18.96-42.664 5.92-13.336h109.608l24.888 56zm-91.688 60.296l-19.688-44.296h39.376l-19.688 44.296zm12.312 11.704l24.88-56h109.616l24.88 56H204.323zm173.096-8.536l-24.104-54.232 92.56-113.92 17.072 39.848-85.528 128.304zm53.784-175.464l-91 112h-27.112l93.336-112h24.776zm-34.664-13.136l-.008.008-98.432 118.12-24.784-55.752 94.864-116.76 37.352 43.584-8.992 10.8zm-129.056-58.864h83.728l-91.008 112h-97.72l105-112zm-104 72h14.56l-39.864 42.528c-.04.04-.056.088-.088.128-.28.312-.496.688-.728 1.04-.192.296-.416.576-.568.896-.024.056-.072.096-.096.152l-29.888 67.256H58.483l105-112zm-155.472-232c13.232 0 24 10.768 24 24 0 4.424 3.576 8 8 8s8-3.576 8-8c0-13.232 10.768-24 24-24 4.424 0 8-3.576 8-8s-3.576-8-8-8c-13.232 0-24-10.768-24-24 0-4.424-3.576-8-8-8s-8 3.576-8 8c0 13.232-10.768 24-24 24-4.424 0-8 3.576-8 8s3.576 8 8 8zm32-16.024a40.137 40.137 0 008.024 8.024 40.137 40.137 0 00-8.024 8.024 40.137 40.137 0 00-8.024-8.024 40.137 40.137 0 008.024-8.024zm112 184.024c0 4.424 3.576 8 8 8s8-3.576 8-8c0-13.232 10.768-24 24-24 4.424 0 8-3.576 8-8s-3.576-8-8-8c-13.232 0-24-10.768-24-24 0-4.424-3.576-8-8-8s-8 3.576-8 8c0 13.232-10.768 24-24 24-4.424 0-8 3.576-8 8s3.576 8 8 8c13.232 0 24 10.768 24 24zm8-40.024a40.137 40.137 0 008.024 8.024 40.137 40.137 0 00-8.024 8.024 40.137 40.137 0 00-8.024-8.024 40.137 40.137 0 008.024-8.024zm40-167.976h16v16h-16zm-160 104h16v16h-16zm432-48c-30.872 0-56-25.128-56-56 0-4.424-3.576-8-8-8s-8 3.576-8 8c0 30.872-25.128 56-56 56-4.424 0-8 3.576-8 8s3.576 8 8 8c30.872 0 56 25.128 56 56 0 4.424 3.576 8 8 8s8-3.576 8-8c0-30.872 25.128-56 56-56 4.424 0 8-3.576 8-8s-3.576-8-8-8zm-64 39.032a72.455 72.455 0 00-31.032-31.032 72.455 72.455 0 0031.032-31.032 72.455 72.455 0 0031.032 31.032 72.455 72.455 0 00-31.032 31.032zm-80 40.968h16v16h-16zm136 56h16v16h-16zm-464 80h16v16h-16z" fill="#212329"/></svg>