<svg version="1.1" id="Capa_1" xmlns="http://www.w3.org/2000/svg" x="0" y="0" viewBox="0 0 480 480" xml:space="preserve"><path d="M104 224h-8c-8.837 0-16 7.163-16 16v8c.026 22.08 17.92 39.974 40 40h8c8.837 0 16-7.163 16-16v-8c-.026-22.08-17.92-39.974-40-40z" fill="#33bc00"/><path d="M152 224h-8c-8.837 0-16 7.163-16 16v8c.026 22.08 17.92 39.974 40 40h8c8.837 0 16-7.163 16-16v-8c-.026-22.08-17.92-39.974-40-40z" fill="#79d60d"/><path d="M88 272h-8c-8.837 0-16 7.163-16 16v8c.026 22.08 17.92 39.974 40 40h8c8.837 0 16-7.163 16-16v-8c-.026-22.08-17.92-39.974-40-40z" fill="#025902"/><path d="M136 272h-8c-8.837 0-16 7.163-16 16v8c.026 22.08 17.92 39.974 40 40h8c8.837 0 16-7.163 16-16v-8c-.026-22.08-17.92-39.974-40-40z" fill="#008100"/><path d="M184 272h-8c-8.837 0-16 7.163-16 16v8c.026 22.08 17.92 39.974 40 40h8c8.837 0 16-7.163 16-16v-8c-.026-22.08-17.92-39.974-40-40z" fill="#33bc00"/><path d="M296.407 213.475l8.003-23.997 15.178 5.062-8.003 23.997-15.178-5.062zm32.004-.036l8.003-23.997 15.178 5.062-8.003 23.997-15.178-5.062zm32.012.027l8.003-23.997 15.178 5.062-8.003 23.997-15.178-5.062z" fill="#008100"/><path d="M304 208c-13.255 0-24 10.745-24 24v40h48v-40c0-13.255-10.745-24-24-24z" fill="#f80"/><path d="M336 208c-13.255 0-24 10.745-24 24v40h48v-40c0-13.255-10.745-24-24-24z" fill="#ff6536"/><path d="M368 208c-13.255 0-24 10.745-24 24v40h48v-40c0-13.255-10.745-24-24-24z" fill="#ff421d"/><path d="M264 264h144v64H264v-64z" fill="#ffa900"/><path d="M216 8h48v112h-48V8zm-48 112V8h-35.552L120 120h48z" fill="#de0418"/><path d="M168 8h48v112h-48V8zm-48 112L132.448 8h-35.56L72 120h48zm288 0L383.112 8h-35.56L360 120h48z" fill="#fbbf00"/><path d="M96.888 8H72l-48 96v16h48L96.888 8zM360 120L347.552 8H312v112h48z" fill="#de0418"/><path d="M264 8h48v112h-48V8z" fill="#fbbf00"/><path d="M408 8h-24.888L408 120h48v-16L408 8z" fill="#de0418"/><path d="M24 120v24c0 13.255 10.745 24 24 24s24-10.745 24-24v-24H24z" fill="#ff421d"/><path d="M72 120v24c0 13.255 10.745 24 24 24s24-10.745 24-24v-24H72z" fill="#ffdb0c"/><path d="M120 120v24c0 13.255 10.745 24 24 24s24-10.745 24-24v-24h-48z" fill="#ff421d"/><path d="M168 120v24c0 13.255 10.745 24 24 24s24-10.745 24-24v-24h-48z" fill="#ffdb0c"/><path d="M216 120v24c0 13.255 10.745 24 24 24s24-10.745 24-24v-24h-48z" fill="#ff421d"/><path d="M264 120v24c0 13.255 10.745 24 24 24s24-10.745 24-24v-24h-48z" fill="#ffdb0c"/><path d="M312 120v24c0 13.255 10.745 24 24 24s24-10.745 24-24v-24h-48z" fill="#ff421d"/><path d="M360 120v24c0 13.255 10.745 24 24 24s24-10.745 24-24v-24h-48z" fill="#ffdb0c"/><path d="M408 144c0 13.255 10.745 24 24 24s24-10.745 24-24v-24h-48v24z" fill="#ff421d"/><path d="M16 320h448v160H16V320z" fill="#ffdb0c"/><g fill="#33bc00"><path d="M298.343 370.363l24.002-24.002 11.314 11.314-24.002 24.002-11.314-11.314z"/><path d="M312 376h24v16h-24v-16z"/></g><path d="M287.28 360h-2.56a32.802 32.802 0 00-26.632 13.704l-30.344 42.488c-6.455 9.045-4.356 21.61 4.689 28.065A20.122 20.122 0 00244.12 448h1.024a20.272 20.272 0 008.992-2.12l47.784-23.896c16.162-8.083 22.711-27.738 14.628-43.9A32.72 32.72 0 00287.28 360z" fill="#ff6536"/><path d="M200 368h-8c-8.837 0-16 7.163-16 16v8c.035 30.913 25.087 55.965 56 56h8c8.837 0 16-7.163 16-16v-8c-.035-30.913-25.087-55.965-56-56z" fill="#79d60d"/><path d="M412.944 0H67.056L16 102.112V144a31.896 31.896 0 0016 27.552V320H16v160h448V320h-16V171.552A31.896 31.896 0 00464 144v-41.888L412.944 0zM400 144c0 8.837-7.163 16-16 16s-16-7.163-16-16v-16h32v16zm-48 0c0 8.837-7.163 16-16 16s-16-7.163-16-16v-16h32v16zm-48 0c0 8.837-7.163 16-16 16s-16-7.163-16-16v-16h32v16zm-48 0c0 8.837-7.163 16-16 16s-16-7.163-16-16v-16h32v16zm-48 0c0 8.837-7.163 16-16 16s-16-7.163-16-16v-16h32v16zm-48 0c0 8.837-7.163 16-16 16s-16-7.163-16-16v-16h32v16zm-48 0c0 8.837-7.163 16-16 16s-16-7.163-16-16v-16h32v16zm112-32V16h32v96h-32zm-16 0h-32V16h32v96zm-48 0h-30.776l13.712-96H160v96zm-46.936 0H82.608l27.424-96h16.744l-13.712 96zM368 112h-1.064l-13.712-96h16.744l27.432 96H368zm-30.936-96l13.712 96H320V16h17.064zM304 112h-32V16h32v96zm-272-6.112L76.944 16h16.448l-27.424 96H32v-6.112zM64 128v16c0 8.837-7.163 16-16 16s-16-7.163-16-16v-16h32zm384 336H32V336h416v128zM80 296v-8h8c13.255 0 24 10.745 24 24v8h-8c-13.255 0-24-10.745-24-24zm128 24h-8c-13.255 0-24-10.745-24-24v-8h8c13.255 0 24 10.745 24 24v8zm-80-24v-8h8c13.255 0 24 10.745 24 24v8h-8c-13.255 0-24-10.745-24-24zm48-24h-8c-13.255 0-24-10.745-24-24v-8h8c13.255 0 24 10.745 24 24v8zm-48 0h-8c-13.255 0-24-10.745-24-24v-8h8c13.255 0 24 10.745 24 24v8zm176-48a8 8 0 018 8v24h-16v-24a8 8 0 018-8zm24 8a8 8 0 0116 0v24h-16v-24zm32 0a8 8 0 0116 0v24h-16v-24zm-48 40h88v48H272v-48h40zm120 48h-16v-64h-24v-24a24.002 24.002 0 00-13.704-21.6l5.296-15.88-15.2-5.064-6.464 19.4A23.859 23.859 0 00352 214.24a24.019 24.019 0 00-5.704-3.832l5.296-15.88-15.2-5.064-6.464 19.4A23.855 23.855 0 00320 214.24a24.019 24.019 0 00-5.704-3.832l5.296-15.88-15.2-5.064-6.464 19.4A24 24 0 00280 232v24h-24v64h-32v-8c-.029-19.026-13.435-35.408-32.08-39.2 0-.272.08-.528.08-.8v-8c-.026-22.08-17.92-39.974-40-40h-8a16 16 0 00-14.544 9.408A39.618 39.618 0 00104 224h-8c-8.837 0-16 7.163-16 16v8a39.608 39.608 0 008.224 24H80c-8.837 0-16 7.163-16 16v8a39.607 39.607 0 008.208 24H48V176a31.801 31.801 0 0024-11.056c11.326 13.255 31.252 14.819 44.507 3.493a31.478 31.478 0 003.493-3.493c11.326 13.255 31.252 14.819 44.507 3.493a31.478 31.478 0 003.493-3.493c11.326 13.255 31.252 14.819 44.507 3.493a31.478 31.478 0 003.493-3.493c11.326 13.255 31.252 14.819 44.507 3.493a31.478 31.478 0 003.493-3.493c11.326 13.255 31.252 14.819 44.507 3.493a31.478 31.478 0 003.493-3.493c11.326 13.255 31.252 14.819 44.507 3.493a31.478 31.478 0 003.493-3.493c11.326 13.255 31.252 14.819 44.507 3.493a31.478 31.478 0 003.493-3.493A31.801 31.801 0 00432 176v144zm16-176c0 8.837-7.163 16-16 16s-16-7.163-16-16v-16h32v16zm-32-32h-1.968l-27.424-96h16.448L448 105.888V112h-32z"/><path d="M288 288h96v16h-96v-16zm45.656 69.656l-11.312-11.312-18.4 18.4A32.371 32.371 0 00287.28 360h-2.56a32.802 32.802 0 00-26.632 13.704L245.4 391.472A55.514 55.514 0 00200 368h-8c-8.837 0-16 7.163-16 16v8c.035 30.913 25.087 55.965 56 56h8a9.856 9.856 0 002.104-.224 20.18 20.18 0 002.008.224h1.024a20.173 20.173 0 009-2.128l47.776-23.888A32.543 32.543 0 00320 392.72c0-.248-.064-.48-.072-.72H336v-16h-20.688l18.344-18.344zM192 392v-8h8a39.785 39.785 0 0137.16 25.28A39.736 39.736 0 01240 424l-.048 7.848L232 432c-22.08-.026-39.974-17.92-40-40zm102.76 15.672L256 427.056V424a55.239 55.239 0 00-.552-7.392 55.027 55.027 0 00-.232-1.6 55.729 55.729 0 00-1.6-7.096c0-.096 0-.2-.064-.296l17.6-24.624A16.8 16.8 0 01284.72 376h2.552c9.234.002 16.719 7.489 16.717 16.723a16.72 16.72 0 01-9.237 14.949h.008z"/></svg>